<mxfile host="65bd71144e">
    <diagram name="Page-1" id="Zlfqy4H-JyzLAqvc_Fi3">
        <mxGraphModel dx="2033" dy="1170" grid="0" gridSize="10" guides="1" tooltips="1" connect="1" arrows="1" fold="1" page="0" pageScale="1" pageWidth="850" pageHeight="1100" background="none" math="0" shadow="0">
            <root>
                <mxCell id="0"/>
                <mxCell id="1" parent="0"/>
                <mxCell id="FTriEgEzF3SZxf41JS00-1" value="&lt;span style=&quot;font-size: 12px; text-align: left; text-wrap: nowrap;&quot;&gt;USER&lt;/span&gt;" style="swimlane;childLayout=stackLayout;horizontal=1;startSize=50;horizontalStack=0;rounded=1;fontSize=14;fontStyle=0;strokeWidth=2;resizeParent=0;resizeLast=1;shadow=0;dashed=0;align=center;arcSize=4;whiteSpace=wrap;html=1;" parent="1" vertex="1">
                    <mxGeometry x="510" y="260" width="170" height="310" as="geometry">
                        <mxRectangle x="310" y="200" width="70" height="50" as="alternateBounds"/>
                    </mxGeometry>
                </mxCell>
                <mxCell id="FTriEgEzF3SZxf41JS00-2" value="&lt;div style=&quot;&quot;&gt;&lt;span style=&quot;background-color: initial;&quot;&gt;_id: ObjectId&lt;/span&gt;&lt;br&gt;&lt;/div&gt;&lt;div style=&quot;&quot;&gt;&lt;span style=&quot;white-space-collapse: collapse;&quot;&gt;name: String&lt;/span&gt;&lt;/div&gt;&lt;div style=&quot;&quot;&gt;&lt;span style=&quot;white-space-collapse: collapse;&quot;&gt;email: String&lt;/span&gt;&lt;/div&gt;&lt;div style=&quot;&quot;&gt;&lt;span style=&quot;white-space-collapse: collapse;&quot;&gt;day_of_birth: Date&lt;/span&gt;&lt;/div&gt;&lt;div style=&quot;&quot;&gt;&lt;span style=&quot;white-space-collapse: collapse;&quot;&gt;password: String&lt;/span&gt;&lt;/div&gt;&lt;div style=&quot;&quot;&gt;&lt;span style=&quot;white-space-collapse: collapse;&quot;&gt;email_verify_token: String&lt;/span&gt;&lt;/div&gt;&lt;div style=&quot;&quot;&gt;&lt;span style=&quot;white-space-collapse: collapse;&quot;&gt;forgot_password_token: String&lt;/span&gt;&lt;/div&gt;&lt;div style=&quot;&quot;&gt;&lt;span style=&quot;white-space-collapse: collapse;&quot;&gt;verify: UserVerifyStatus&lt;/span&gt;&lt;/div&gt;&lt;div style=&quot;&quot;&gt;&lt;span style=&quot;white-space-collapse: collapse;&quot;&gt;created_at: Date&lt;/span&gt;&lt;/div&gt;&lt;div style=&quot;&quot;&gt;&lt;span style=&quot;white-space-collapse: collapse;&quot;&gt;updated_at: Date&lt;/span&gt;&lt;/div&gt;&lt;div style=&quot;&quot;&gt;&lt;br&gt;&lt;/div&gt;&lt;div style=&quot;&quot;&gt;&lt;span style=&quot;white-space-collapse: collapse;&quot;&gt;bio: String&lt;/span&gt;&lt;/div&gt;&lt;div style=&quot;&quot;&gt;&lt;span style=&quot;white-space-collapse: collapse;&quot;&gt;website: String&lt;/span&gt;&lt;/div&gt;&lt;div style=&quot;&quot;&gt;&lt;span style=&quot;white-space-collapse: collapse;&quot;&gt;location: String&lt;/span&gt;&lt;/div&gt;&lt;div style=&quot;&quot;&gt;&lt;span style=&quot;white-space-collapse: collapse;&quot;&gt;username: String&lt;/span&gt;&lt;/div&gt;&lt;div style=&quot;&quot;&gt;&lt;span style=&quot;white-space-collapse: collapse;&quot;&gt;avatar: String&lt;/span&gt;&lt;/div&gt;&lt;div style=&quot;&quot;&gt;&lt;span style=&quot;white-space-collapse: collapse;&quot;&gt;cover_photo: String&lt;/span&gt;&lt;/div&gt;" style="align=left;strokeColor=none;fillColor=none;spacingLeft=4;fontSize=12;verticalAlign=top;resizable=0;rotatable=0;part=1;html=1;" parent="FTriEgEzF3SZxf41JS00-1" vertex="1">
                    <mxGeometry y="50" width="170" height="260" as="geometry"/>
                </mxCell>
                <mxCell id="FTriEgEzF3SZxf41JS00-4" value="" style="fontStyle=1;align=center;verticalAlign=middle;childLayout=stackLayout;horizontal=1;horizontalStack=0;resizeParent=1;resizeParentMax=0;resizeLast=0;marginBottom=0;" parent="1" vertex="1">
                    <mxGeometry x="880" y="185" width="110" height="96" as="geometry"/>
                </mxCell>
                <mxCell id="FTriEgEzF3SZxf41JS00-5" value="&amp;lt;&amp;lt;enumeration&amp;gt;&amp;gt;" style="html=1;align=center;spacing=0;verticalAlign=middle;strokeColor=none;fillColor=none;whiteSpace=wrap;" parent="FTriEgEzF3SZxf41JS00-4" vertex="1">
                    <mxGeometry width="110" height="20" as="geometry"/>
                </mxCell>
                <mxCell id="FTriEgEzF3SZxf41JS00-6" value="&lt;span style=&quot;font-weight: 400; text-align: left; text-wrap: nowrap;&quot;&gt;UserVerifyStatus&lt;/span&gt;" style="html=1;align=center;spacing=0;verticalAlign=middle;strokeColor=none;fillColor=none;whiteSpace=wrap;fontStyle=1;" parent="FTriEgEzF3SZxf41JS00-4" vertex="1">
                    <mxGeometry y="20" width="110" height="14" as="geometry"/>
                </mxCell>
                <mxCell id="FTriEgEzF3SZxf41JS00-7" value="" style="line;strokeWidth=0.25;fillColor=none;align=left;verticalAlign=middle;spacingTop=-1;spacingLeft=3;spacingRight=3;rotatable=0;labelPosition=right;points=[];portConstraint=eastwest;" parent="FTriEgEzF3SZxf41JS00-4" vertex="1">
                    <mxGeometry y="34" width="110" height="8" as="geometry"/>
                </mxCell>
                <mxCell id="FTriEgEzF3SZxf41JS00-8" value="Unverified" style="html=1;align=left;spacing=0;spacingLeft=8;verticalAlign=middle;strokeColor=none;fillColor=none;whiteSpace=wrap;" parent="FTriEgEzF3SZxf41JS00-4" vertex="1">
                    <mxGeometry y="42" width="110" height="16" as="geometry"/>
                </mxCell>
                <mxCell id="FTriEgEzF3SZxf41JS00-9" value="Verified" style="html=1;align=left;spacing=0;spacingLeft=8;verticalAlign=middle;strokeColor=none;fillColor=none;whiteSpace=wrap;" parent="FTriEgEzF3SZxf41JS00-4" vertex="1">
                    <mxGeometry y="58" width="110" height="16" as="geometry"/>
                </mxCell>
                <mxCell id="FTriEgEzF3SZxf41JS00-13" value="Banned" style="html=1;align=left;spacing=0;spacingLeft=8;verticalAlign=middle;strokeColor=none;fillColor=none;whiteSpace=wrap;" parent="FTriEgEzF3SZxf41JS00-4" vertex="1">
                    <mxGeometry y="74" width="110" height="16" as="geometry"/>
                </mxCell>
                <mxCell id="FTriEgEzF3SZxf41JS00-10" value="" style="html=1;align=left;spacing=0;spacingLeft=8;verticalAlign=middle;strokeColor=none;fillColor=none;whiteSpace=wrap;" parent="FTriEgEzF3SZxf41JS00-4" vertex="1">
                    <mxGeometry y="90" width="110" height="6" as="geometry"/>
                </mxCell>
                <mxCell id="FTriEgEzF3SZxf41JS00-22" value="RefreshToken" style="swimlane;childLayout=stackLayout;horizontal=1;startSize=50;horizontalStack=0;rounded=1;fontSize=14;fontStyle=0;strokeWidth=2;resizeParent=0;resizeLast=1;shadow=0;dashed=0;align=center;arcSize=4;whiteSpace=wrap;html=1;" parent="1" vertex="1">
                    <mxGeometry x="110" y="315" width="110" height="120" as="geometry">
                        <mxRectangle x="-90" y="220" width="130" height="50" as="alternateBounds"/>
                    </mxGeometry>
                </mxCell>
                <mxCell id="FTriEgEzF3SZxf41JS00-23" value="&lt;div&gt;_id: ObjectId&lt;/div&gt;&lt;div&gt;&lt;span style=&quot;white-space-collapse: collapse;&quot;&gt;token: String&lt;/span&gt;&lt;/div&gt;&lt;div&gt;&lt;span style=&quot;white-space-collapse: collapse;&quot;&gt;created_at: Date&lt;/span&gt;&lt;/div&gt;&lt;div&gt;&lt;span style=&quot;white-space-collapse: collapse;&quot;&gt;user_id: ObjectId&lt;/span&gt;&lt;/div&gt;" style="align=left;strokeColor=none;fillColor=none;spacingLeft=4;fontSize=12;verticalAlign=top;resizable=0;rotatable=0;part=1;html=1;" parent="FTriEgEzF3SZxf41JS00-22" vertex="1">
                    <mxGeometry y="50" width="110" height="70" as="geometry"/>
                </mxCell>
                <mxCell id="FTriEgEzF3SZxf41JS00-24" value="Following" style="swimlane;childLayout=stackLayout;horizontal=1;startSize=50;horizontalStack=0;rounded=1;fontSize=14;fontStyle=0;strokeWidth=2;resizeParent=0;resizeLast=1;shadow=0;dashed=0;align=center;arcSize=4;whiteSpace=wrap;html=1;" parent="1" vertex="1">
                    <mxGeometry x="120" y="140" width="160" height="120" as="geometry">
                        <mxRectangle x="40" y="80" width="100" height="50" as="alternateBounds"/>
                    </mxGeometry>
                </mxCell>
                <mxCell id="FTriEgEzF3SZxf41JS00-25" value="&lt;div&gt;_id: ObjectId&lt;/div&gt;&lt;div&gt;&lt;span style=&quot;white-space-collapse: collapse;&quot;&gt;user_id: ObjectId&lt;/span&gt;&lt;/div&gt;&lt;div&gt;&lt;span style=&quot;white-space-collapse: collapse;&quot;&gt;followed_user_id: ObjectId&lt;/span&gt;&lt;/div&gt;&lt;div&gt;&lt;span style=&quot;white-space-collapse: collapse;&quot;&gt;created_at: Date&lt;/span&gt;&lt;/div&gt;" style="align=left;strokeColor=none;fillColor=none;spacingLeft=4;fontSize=12;verticalAlign=top;resizable=0;rotatable=0;part=1;html=1;" parent="FTriEgEzF3SZxf41JS00-24" vertex="1">
                    <mxGeometry y="50" width="160" height="70" as="geometry"/>
                </mxCell>
                <mxCell id="FTriEgEzF3SZxf41JS00-26" value="Post" style="swimlane;childLayout=stackLayout;horizontal=1;startSize=50;horizontalStack=0;rounded=1;fontSize=14;fontStyle=0;strokeWidth=2;resizeParent=0;resizeLast=1;shadow=0;dashed=0;align=center;arcSize=4;whiteSpace=wrap;html=1;" parent="1" vertex="1">
                    <mxGeometry x="325" y="575" width="140" height="270" as="geometry">
                        <mxRectangle x="-20" y="410" width="70" height="50" as="alternateBounds"/>
                    </mxGeometry>
                </mxCell>
                <mxCell id="FTriEgEzF3SZxf41JS00-27" value="&lt;div&gt;_id: ObjectId&lt;/div&gt;&lt;div&gt;&lt;span style=&quot;white-space-collapse: collapse;&quot;&gt;user_id: ObjectId&lt;/span&gt;&lt;/div&gt;&lt;div&gt;&lt;span style=&quot;white-space-collapse: collapse;&quot;&gt;parent_id: null | ObjectId&lt;/span&gt;&lt;/div&gt;&lt;div&gt;&lt;span style=&quot;white-space-collapse: collapse;&quot;&gt;hashtags: ObjectId[]&lt;/span&gt;&lt;/div&gt;&lt;div&gt;&lt;span style=&quot;white-space-collapse: collapse;&quot;&gt;type: PostType&lt;/span&gt;&lt;/div&gt;&lt;div&gt;&lt;span style=&quot;white-space-collapse: collapse;&quot;&gt;audience: PostAudience&lt;/span&gt;&lt;/div&gt;&lt;div&gt;&lt;span style=&quot;white-space-collapse: collapse;&quot;&gt;content: String&lt;/span&gt;&lt;/div&gt;&lt;div&gt;&lt;span style=&quot;white-space-collapse: collapse;&quot;&gt;hashtags: ObjectId[]&lt;/span&gt;&lt;/div&gt;&lt;div&gt;&lt;span style=&quot;white-space-collapse: collapse;&quot;&gt;mentions: ObjectId[]&lt;/span&gt;&lt;/div&gt;&lt;div&gt;&lt;span style=&quot;white-space-collapse: collapse;&quot;&gt;media: Media[]&lt;/span&gt;&lt;/div&gt;&lt;div&gt;&lt;span style=&quot;white-space-collapse: collapse;&quot;&gt;guest_views: number&lt;/span&gt;&lt;/div&gt;&lt;div&gt;&lt;span style=&quot;white-space-collapse: collapse;&quot;&gt;user_views: numer&lt;/span&gt;&lt;/div&gt;&lt;div&gt;&lt;span style=&quot;white-space-collapse: collapse;&quot;&gt;created_at: Date&lt;/span&gt;&lt;/div&gt;&lt;div&gt;&lt;span style=&quot;white-space-collapse: collapse;&quot;&gt;updated_at: Date&lt;/span&gt;&lt;/div&gt;" style="align=left;strokeColor=none;fillColor=none;spacingLeft=4;fontSize=12;verticalAlign=top;resizable=0;rotatable=0;part=1;html=1;" parent="FTriEgEzF3SZxf41JS00-26" vertex="1">
                    <mxGeometry y="50" width="140" height="220" as="geometry"/>
                </mxCell>
                <mxCell id="FTriEgEzF3SZxf41JS00-30" value="" style="fontStyle=1;align=center;verticalAlign=middle;childLayout=stackLayout;horizontal=1;horizontalStack=0;resizeParent=1;resizeParentMax=0;resizeLast=0;marginBottom=0;" parent="1" vertex="1">
                    <mxGeometry x="-20" y="615" width="100" height="106" as="geometry"/>
                </mxCell>
                <mxCell id="FTriEgEzF3SZxf41JS00-31" value="&amp;lt;&amp;lt;enumeration&amp;gt;&amp;gt;" style="html=1;align=center;spacing=0;verticalAlign=middle;strokeColor=none;fillColor=none;whiteSpace=wrap;" parent="FTriEgEzF3SZxf41JS00-30" vertex="1">
                    <mxGeometry width="100" height="20" as="geometry"/>
                </mxCell>
                <mxCell id="FTriEgEzF3SZxf41JS00-32" value="&lt;span style=&quot;font-weight: 400; text-align: left; text-wrap: nowrap;&quot;&gt;PostType&lt;/span&gt;" style="html=1;align=center;spacing=0;verticalAlign=middle;strokeColor=none;fillColor=none;whiteSpace=wrap;fontStyle=1;" parent="FTriEgEzF3SZxf41JS00-30" vertex="1">
                    <mxGeometry y="20" width="100" height="14" as="geometry"/>
                </mxCell>
                <mxCell id="FTriEgEzF3SZxf41JS00-33" value="" style="line;strokeWidth=0.25;fillColor=none;align=left;verticalAlign=middle;spacingTop=-1;spacingLeft=3;spacingRight=3;rotatable=0;labelPosition=right;points=[];portConstraint=eastwest;" parent="FTriEgEzF3SZxf41JS00-30" vertex="1">
                    <mxGeometry y="34" width="100" height="8" as="geometry"/>
                </mxCell>
                <mxCell id="FTriEgEzF3SZxf41JS00-34" value="Post&lt;div&gt;Repost&lt;/div&gt;&lt;div&gt;Comment&lt;/div&gt;&lt;div&gt;QuotePost&lt;/div&gt;" style="html=1;align=left;spacing=0;spacingLeft=8;verticalAlign=middle;strokeColor=none;fillColor=none;whiteSpace=wrap;" parent="FTriEgEzF3SZxf41JS00-30" vertex="1">
                    <mxGeometry y="42" width="100" height="58" as="geometry"/>
                </mxCell>
                <mxCell id="FTriEgEzF3SZxf41JS00-37" value="" style="html=1;align=left;spacing=0;spacingLeft=8;verticalAlign=middle;strokeColor=none;fillColor=none;whiteSpace=wrap;" parent="FTriEgEzF3SZxf41JS00-30" vertex="1">
                    <mxGeometry y="100" width="100" height="6" as="geometry"/>
                </mxCell>
                <mxCell id="FTriEgEzF3SZxf41JS00-43" value="" style="fontStyle=1;align=center;verticalAlign=middle;childLayout=stackLayout;horizontal=1;horizontalStack=0;resizeParent=1;resizeParentMax=0;resizeLast=0;marginBottom=0;" parent="1" vertex="1">
                    <mxGeometry x="620" y="767" width="110" height="86" as="geometry"/>
                </mxCell>
                <mxCell id="FTriEgEzF3SZxf41JS00-44" value="&amp;lt;&amp;lt;enumeration&amp;gt;&amp;gt;" style="html=1;align=center;spacing=0;verticalAlign=middle;strokeColor=none;fillColor=none;whiteSpace=wrap;" parent="FTriEgEzF3SZxf41JS00-43" vertex="1">
                    <mxGeometry width="110" height="20" as="geometry"/>
                </mxCell>
                <mxCell id="FTriEgEzF3SZxf41JS00-45" value="&lt;span style=&quot;font-weight: 400; text-align: left; text-wrap: nowrap;&quot;&gt;PostAudience&lt;/span&gt;" style="html=1;align=center;spacing=0;verticalAlign=middle;strokeColor=none;fillColor=none;whiteSpace=wrap;fontStyle=1;" parent="FTriEgEzF3SZxf41JS00-43" vertex="1">
                    <mxGeometry y="20" width="110" height="14" as="geometry"/>
                </mxCell>
                <mxCell id="FTriEgEzF3SZxf41JS00-46" value="" style="line;strokeWidth=0.25;fillColor=none;align=left;verticalAlign=middle;spacingTop=-1;spacingLeft=3;spacingRight=3;rotatable=0;labelPosition=right;points=[];portConstraint=eastwest;" parent="FTriEgEzF3SZxf41JS00-43" vertex="1">
                    <mxGeometry y="34" width="110" height="8" as="geometry"/>
                </mxCell>
                <mxCell id="FTriEgEzF3SZxf41JS00-47" value="Everyone&lt;div&gt;Circle&lt;/div&gt;" style="html=1;align=left;spacing=0;spacingLeft=8;verticalAlign=middle;strokeColor=none;fillColor=none;whiteSpace=wrap;" parent="FTriEgEzF3SZxf41JS00-43" vertex="1">
                    <mxGeometry y="42" width="110" height="38" as="geometry"/>
                </mxCell>
                <mxCell id="FTriEgEzF3SZxf41JS00-48" value="" style="html=1;align=left;spacing=0;spacingLeft=8;verticalAlign=middle;strokeColor=none;fillColor=none;whiteSpace=wrap;" parent="FTriEgEzF3SZxf41JS00-43" vertex="1">
                    <mxGeometry y="80" width="110" height="6" as="geometry"/>
                </mxCell>
                <mxCell id="FTriEgEzF3SZxf41JS00-49" value="Media" style="swimlane;childLayout=stackLayout;horizontal=1;startSize=50;horizontalStack=0;rounded=1;fontSize=14;fontStyle=0;strokeWidth=2;resizeParent=0;resizeLast=1;shadow=0;dashed=0;align=center;arcSize=4;whiteSpace=wrap;html=1;" parent="1" vertex="1">
                    <mxGeometry x="60" y="785" width="110" height="90" as="geometry">
                        <mxRectangle x="190" y="340" width="80" height="50" as="alternateBounds"/>
                    </mxGeometry>
                </mxCell>
                <mxCell id="FTriEgEzF3SZxf41JS00-50" value="url: string&lt;div&gt;type: MediaType&lt;/div&gt;" style="align=left;strokeColor=none;fillColor=none;spacingLeft=4;fontSize=12;verticalAlign=top;resizable=0;rotatable=0;part=1;html=1;" parent="FTriEgEzF3SZxf41JS00-49" vertex="1">
                    <mxGeometry y="50" width="110" height="40" as="geometry"/>
                </mxCell>
                <mxCell id="FTriEgEzF3SZxf41JS00-51" value="" style="fontStyle=1;align=center;verticalAlign=middle;childLayout=stackLayout;horizontal=1;horizontalStack=0;resizeParent=1;resizeParentMax=0;resizeLast=0;marginBottom=0;" parent="1" vertex="1">
                    <mxGeometry x="-140" y="845" width="110" height="86" as="geometry"/>
                </mxCell>
                <mxCell id="FTriEgEzF3SZxf41JS00-52" value="&amp;lt;&amp;lt;enumeration&amp;gt;&amp;gt;" style="html=1;align=center;spacing=0;verticalAlign=middle;strokeColor=none;fillColor=none;whiteSpace=wrap;" parent="FTriEgEzF3SZxf41JS00-51" vertex="1">
                    <mxGeometry width="110" height="20" as="geometry"/>
                </mxCell>
                <mxCell id="FTriEgEzF3SZxf41JS00-53" value="&lt;span style=&quot;font-weight: 400; text-align: left; text-wrap: nowrap;&quot;&gt;MediaType&lt;/span&gt;" style="html=1;align=center;spacing=0;verticalAlign=middle;strokeColor=none;fillColor=none;whiteSpace=wrap;fontStyle=1;" parent="FTriEgEzF3SZxf41JS00-51" vertex="1">
                    <mxGeometry y="20" width="110" height="14" as="geometry"/>
                </mxCell>
                <mxCell id="FTriEgEzF3SZxf41JS00-54" value="" style="line;strokeWidth=0.25;fillColor=none;align=left;verticalAlign=middle;spacingTop=-1;spacingLeft=3;spacingRight=3;rotatable=0;labelPosition=right;points=[];portConstraint=eastwest;" parent="FTriEgEzF3SZxf41JS00-51" vertex="1">
                    <mxGeometry y="34" width="110" height="8" as="geometry"/>
                </mxCell>
                <mxCell id="FTriEgEzF3SZxf41JS00-55" value="Image&lt;div&gt;Video&lt;/div&gt;" style="html=1;align=left;spacing=0;spacingLeft=8;verticalAlign=middle;strokeColor=none;fillColor=none;whiteSpace=wrap;" parent="FTriEgEzF3SZxf41JS00-51" vertex="1">
                    <mxGeometry y="42" width="110" height="38" as="geometry"/>
                </mxCell>
                <mxCell id="FTriEgEzF3SZxf41JS00-56" value="" style="html=1;align=left;spacing=0;spacingLeft=8;verticalAlign=middle;strokeColor=none;fillColor=none;whiteSpace=wrap;" parent="FTriEgEzF3SZxf41JS00-51" vertex="1">
                    <mxGeometry y="80" width="110" height="6" as="geometry"/>
                </mxCell>
                <mxCell id="FTriEgEzF3SZxf41JS00-58" value="Bookmark" style="swimlane;childLayout=stackLayout;horizontal=1;startSize=50;horizontalStack=0;rounded=1;fontSize=14;fontStyle=0;strokeWidth=2;resizeParent=0;resizeLast=1;shadow=0;dashed=0;align=center;arcSize=4;whiteSpace=wrap;html=1;" parent="1" vertex="1">
                    <mxGeometry x="620" y="615" width="120" height="120" as="geometry"/>
                </mxCell>
                <mxCell id="FTriEgEzF3SZxf41JS00-59" value="&lt;div&gt;_id: ObjectId&lt;/div&gt;&lt;div&gt;&lt;span style=&quot;white-space-collapse: collapse;&quot;&gt;user_id: ObjectId&lt;/span&gt;&lt;/div&gt;&lt;div&gt;&lt;span style=&quot;white-space-collapse: collapse;&quot;&gt;post_id: ObjectId&lt;/span&gt;&lt;/div&gt;&lt;div&gt;&lt;span style=&quot;white-space-collapse: collapse;&quot;&gt;created_at: Date&lt;/span&gt;&lt;/div&gt;" style="align=left;strokeColor=none;fillColor=none;spacingLeft=4;fontSize=12;verticalAlign=top;resizable=0;rotatable=0;part=1;html=1;" parent="FTriEgEzF3SZxf41JS00-58" vertex="1">
                    <mxGeometry y="50" width="120" height="70" as="geometry"/>
                </mxCell>
                <mxCell id="FTriEgEzF3SZxf41JS00-60" value="Like" style="swimlane;childLayout=stackLayout;horizontal=1;startSize=50;horizontalStack=0;rounded=1;fontSize=14;fontStyle=0;strokeWidth=2;resizeParent=0;resizeLast=1;shadow=0;dashed=0;align=center;arcSize=4;whiteSpace=wrap;html=1;" parent="1" vertex="1">
                    <mxGeometry y="455" width="110" height="120" as="geometry"/>
                </mxCell>
                <mxCell id="FTriEgEzF3SZxf41JS00-61" value="&lt;div&gt;_id: ObjectId&lt;/div&gt;&lt;div&gt;&lt;span style=&quot;white-space-collapse: collapse;&quot;&gt;user_id: ObjectId&lt;/span&gt;&lt;/div&gt;&lt;div&gt;&lt;span style=&quot;white-space-collapse: collapse;&quot;&gt;post_id: ObjectId&lt;/span&gt;&lt;/div&gt;&lt;div&gt;&lt;span style=&quot;white-space-collapse: collapse;&quot;&gt;created_at: Date&lt;/span&gt;&lt;/div&gt;" style="align=left;strokeColor=none;fillColor=none;spacingLeft=4;fontSize=12;verticalAlign=top;resizable=0;rotatable=0;part=1;html=1;" parent="FTriEgEzF3SZxf41JS00-60" vertex="1">
                    <mxGeometry y="50" width="110" height="70" as="geometry"/>
                </mxCell>
                <mxCell id="FTriEgEzF3SZxf41JS00-62" value="Hashtag" style="swimlane;childLayout=stackLayout;horizontal=1;startSize=50;horizontalStack=0;rounded=1;fontSize=14;fontStyle=0;strokeWidth=2;resizeParent=0;resizeLast=1;shadow=0;dashed=0;align=center;arcSize=4;whiteSpace=wrap;html=1;" parent="1" vertex="1">
                    <mxGeometry x="600" y="905" width="130" height="110" as="geometry"/>
                </mxCell>
                <mxCell id="FTriEgEzF3SZxf41JS00-63" value="&lt;div&gt;_id: ObjectId&lt;/div&gt;&lt;div&gt;&lt;span style=&quot;white-space-collapse: collapse;&quot;&gt;name: String&lt;/span&gt;&lt;/div&gt;&lt;div&gt;&lt;span style=&quot;white-space-collapse: collapse;&quot;&gt;created_at: Date&lt;/span&gt;&lt;/div&gt;" style="align=left;strokeColor=none;fillColor=none;spacingLeft=4;fontSize=12;verticalAlign=top;resizable=0;rotatable=0;part=1;html=1;" parent="FTriEgEzF3SZxf41JS00-62" vertex="1">
                    <mxGeometry y="50" width="130" height="60" as="geometry"/>
                </mxCell>
                <mxCell id="FTriEgEzF3SZxf41JS00-86" style="edgeStyle=orthogonalEdgeStyle;rounded=0;orthogonalLoop=1;jettySize=auto;html=1;entryX=0.006;entryY=0.053;entryDx=0;entryDy=0;entryPerimeter=0;" parent="1" source="FTriEgEzF3SZxf41JS00-61" target="FTriEgEzF3SZxf41JS00-27" edge="1">
                    <mxGeometry relative="1" as="geometry"/>
                </mxCell>
                <mxCell id="FTriEgEzF3SZxf41JS00-91" style="edgeStyle=orthogonalEdgeStyle;rounded=0;orthogonalLoop=1;jettySize=auto;html=1;entryX=0.994;entryY=0.057;entryDx=0;entryDy=0;entryPerimeter=0;" parent="1" source="FTriEgEzF3SZxf41JS00-58" target="FTriEgEzF3SZxf41JS00-27" edge="1">
                    <mxGeometry relative="1" as="geometry"/>
                </mxCell>
                <mxCell id="FTriEgEzF3SZxf41JS00-92" style="edgeStyle=orthogonalEdgeStyle;rounded=0;orthogonalLoop=1;jettySize=auto;html=1;entryX=0;entryY=0.25;entryDx=0;entryDy=0;" parent="1" source="FTriEgEzF3SZxf41JS00-34" target="FTriEgEzF3SZxf41JS00-27" edge="1">
                    <mxGeometry relative="1" as="geometry">
                        <Array as="points">
                            <mxPoint x="140" y="680"/>
                            <mxPoint x="140" y="680"/>
                        </Array>
                    </mxGeometry>
                </mxCell>
                <mxCell id="FTriEgEzF3SZxf41JS00-93" style="edgeStyle=orthogonalEdgeStyle;rounded=0;orthogonalLoop=1;jettySize=auto;html=1;entryX=0;entryY=0.655;entryDx=0;entryDy=0;entryPerimeter=0;" parent="1" source="FTriEgEzF3SZxf41JS00-50" target="FTriEgEzF3SZxf41JS00-27" edge="1">
                    <mxGeometry relative="1" as="geometry"/>
                </mxCell>
                <mxCell id="FTriEgEzF3SZxf41JS00-94" style="edgeStyle=orthogonalEdgeStyle;rounded=0;orthogonalLoop=1;jettySize=auto;html=1;entryX=0;entryY=0.75;entryDx=0;entryDy=0;" parent="1" source="FTriEgEzF3SZxf41JS00-55" target="FTriEgEzF3SZxf41JS00-50" edge="1">
                    <mxGeometry relative="1" as="geometry"/>
                </mxCell>
                <mxCell id="FTriEgEzF3SZxf41JS00-95" style="edgeStyle=orthogonalEdgeStyle;rounded=0;orthogonalLoop=1;jettySize=auto;html=1;entryX=0.995;entryY=0.446;entryDx=0;entryDy=0;entryPerimeter=0;" parent="1" source="FTriEgEzF3SZxf41JS00-9" target="FTriEgEzF3SZxf41JS00-2" edge="1">
                    <mxGeometry relative="1" as="geometry">
                        <Array as="points">
                            <mxPoint x="840" y="251"/>
                            <mxPoint x="840" y="426"/>
                        </Array>
                    </mxGeometry>
                </mxCell>
                <mxCell id="FTriEgEzF3SZxf41JS00-96" style="edgeStyle=orthogonalEdgeStyle;rounded=0;orthogonalLoop=1;jettySize=auto;html=1;" parent="1" source="FTriEgEzF3SZxf41JS00-23" target="FTriEgEzF3SZxf41JS00-2" edge="1">
                    <mxGeometry relative="1" as="geometry">
                        <mxPoint x="500" y="345" as="targetPoint"/>
                        <Array as="points">
                            <mxPoint x="320" y="400"/>
                            <mxPoint x="320" y="345"/>
                            <mxPoint x="390" y="345"/>
                            <mxPoint x="390" y="322"/>
                        </Array>
                    </mxGeometry>
                </mxCell>
                <mxCell id="FTriEgEzF3SZxf41JS00-97" style="edgeStyle=orthogonalEdgeStyle;rounded=0;orthogonalLoop=1;jettySize=auto;html=1;entryX=0.005;entryY=0.048;entryDx=0;entryDy=0;entryPerimeter=0;" parent="1" source="FTriEgEzF3SZxf41JS00-25" target="FTriEgEzF3SZxf41JS00-2" edge="1">
                    <mxGeometry relative="1" as="geometry">
                        <Array as="points">
                            <mxPoint x="390" y="225"/>
                            <mxPoint x="390" y="322"/>
                        </Array>
                    </mxGeometry>
                </mxCell>
                <mxCell id="FTriEgEzF3SZxf41JS00-98" style="edgeStyle=orthogonalEdgeStyle;rounded=0;orthogonalLoop=1;jettySize=auto;html=1;" parent="1" source="FTriEgEzF3SZxf41JS00-63" edge="1">
                    <mxGeometry relative="1" as="geometry">
                        <mxPoint x="468" y="747" as="targetPoint"/>
                        <Array as="points">
                            <mxPoint x="510" y="965"/>
                            <mxPoint x="510" y="747"/>
                        </Array>
                    </mxGeometry>
                </mxCell>
                <mxCell id="FTriEgEzF3SZxf41JS00-99" style="edgeStyle=orthogonalEdgeStyle;rounded=0;orthogonalLoop=1;jettySize=auto;html=1;entryX=1.012;entryY=0.39;entryDx=0;entryDy=0;entryPerimeter=0;" parent="1" source="FTriEgEzF3SZxf41JS00-47" target="FTriEgEzF3SZxf41JS00-27" edge="1">
                    <mxGeometry relative="1" as="geometry"/>
                </mxCell>
                <mxCell id="FTriEgEzF3SZxf41JS00-100" style="edgeStyle=orthogonalEdgeStyle;rounded=0;orthogonalLoop=1;jettySize=auto;html=1;entryX=1.009;entryY=0.143;entryDx=0;entryDy=0;entryPerimeter=0;" parent="1" source="FTriEgEzF3SZxf41JS00-59" target="FTriEgEzF3SZxf41JS00-2" edge="1">
                    <mxGeometry relative="1" as="geometry">
                        <mxPoint x="760" y="675" as="sourcePoint"/>
                        <mxPoint x="710.0400000000002" y="335" as="targetPoint"/>
                        <Array as="points">
                            <mxPoint x="739" y="664"/>
                            <mxPoint x="800" y="664"/>
                            <mxPoint x="800" y="347"/>
                        </Array>
                    </mxGeometry>
                </mxCell>
                <mxCell id="FTriEgEzF3SZxf41JS00-104" style="edgeStyle=orthogonalEdgeStyle;rounded=0;orthogonalLoop=1;jettySize=auto;html=1;" parent="1" source="FTriEgEzF3SZxf41JS00-26" target="FTriEgEzF3SZxf41JS00-2" edge="1">
                    <mxGeometry relative="1" as="geometry">
                        <Array as="points">
                            <mxPoint x="390" y="440"/>
                        </Array>
                    </mxGeometry>
                </mxCell>
                <mxCell id="FTriEgEzF3SZxf41JS00-105" style="edgeStyle=orthogonalEdgeStyle;rounded=0;orthogonalLoop=1;jettySize=auto;html=1;entryX=-0.01;entryY=0.294;entryDx=0;entryDy=0;entryPerimeter=0;" parent="1" source="FTriEgEzF3SZxf41JS00-60" target="FTriEgEzF3SZxf41JS00-2" edge="1">
                    <mxGeometry relative="1" as="geometry">
                        <mxPoint x="340" y="395" as="targetPoint"/>
                        <Array as="points">
                            <mxPoint x="350" y="496"/>
                            <mxPoint x="350" y="386"/>
                        </Array>
                    </mxGeometry>
                </mxCell>
                <mxCell id="8" value="&lt;font style=&quot;font-size: 40px;&quot;&gt;&lt;b&gt;Schema&lt;/b&gt;&lt;/font&gt;" style="text;html=1;align=center;verticalAlign=middle;resizable=0;points=[];autosize=1;strokeColor=none;fillColor=none;" parent="1" vertex="1">
                    <mxGeometry x="335" y="50" width="180" height="60" as="geometry"/>
                </mxCell>
            </root>
        </mxGraphModel>
    </diagram>
</mxfile>